<svg width="1024" height="1024" viewBox="0 0 24 24">
  <path
    d="m12 13.703-5.962 5.962c-.223.223-.507.335-.852.335-.344 0-.628-.112-.851-.335-.223-.223-.335-.507-.335-.851 0-.345.112-.629.335-.852L10.297 12 4.335 6.038C4.112 5.815 4 5.531 4 5.186c0-.344.112-.628.335-.851.223-.223.507-.335.851-.335.345 0 .629.112.852.335L12 10.297l5.962-5.962c.223-.223.507-.335.852-.335.344 0 .628.112.851.335.223.223.335.507.335.851 0 .345-.112.629-.335.852L13.703 12l5.962 5.962c.223.223.335.507.335.852 0 .344-.112.628-.335.851-.223.223-.507.335-.851.335-.345 0-.629-.112-.852-.335L12 13.703z"
    fill-rule="nonzero"
  />
</svg>
